HIERARCHY
ROOT Hips
{
	OFFSET -3.958830 18.904000 13.208200
	CHANNELS 6 Xposition Yposition Zposition Zrotation Yrotation Xrotation 
	JOINT LHipJoint
	{
		OFFSET 0.000000 0.000000 0.000000
		CHANNELS 3 Zrotation Yrotation Xrotation
		JOINT LeftUpLeg
		{
			OFFSET 1.800000 -1.400000 0.085000
			CHANNELS 3 Zrotation Yrotation Xrotation
			JOINT LeftLeg
			{
				OFFSET 2.215000 -6.000000 0.000000
				CHANNELS 3 Zrotation Yrotation Xrotation
				JOINT LeftFoot
				{
					OFFSET 2.500000 -6.900000 0.000000
					CHANNELS 3 Zrotation Yrotation Xrotation
					JOINT LeftToeBase
					{
						OFFSET 0.200000 -0.500000 1.950000
						CHANNELS 3 Zrotation Yrotation Xrotation
						End Site
						{
							OFFSET 0.000000 0.000000 0.000000
						}
					}
				}
			}
		}
	}
	JOINT RHipJoint
	{
		OFFSET 0.000000 0.000000 0.000000
		CHANNELS 3 Zrotation Yrotation Xrotation
		JOINT RightUpLeg
		{
			OFFSET -1.800000 -1.400000 0.085000
			CHANNELS 3 Zrotation Yrotation Xrotation
			JOINT RightLeg
			{
				OFFSET -2.215000 -6.000000 0.000000
				CHANNELS 3 Zrotation Yrotation Xrotation
				JOINT RightFoot
				{
					OFFSET -2.500000 -6.900000 0.000000
					CHANNELS 3 Zrotation Yrotation Xrotation
					JOINT RightToeBase
					{
						OFFSET -0.200000 -0.500000 1.950000
						CHANNELS 3 Zrotation Yrotation Xrotation
						End Site
						{
							OFFSET 0.000000 0.000000 0.000000
						}
					}
				}
			}
		}
	}
	JOINT LowerBack
	{
		OFFSET 0.000000 0.000000 0.000000
		CHANNELS 3 Zrotation Yrotation Xrotation
		JOINT Spine
		{
			OFFSET -0.087000 1.940000 -0.288900
			CHANNELS 3 Zrotation Yrotation Xrotation
			JOINT Spine1
			{
				OFFSET 0.000000 1.950000 0.060000
				CHANNELS 3 Zrotation Yrotation Xrotation
				JOINT Neck
				{
					OFFSET 0.000000 0.000000 0.000000
					CHANNELS 3 Zrotation Yrotation Xrotation
					JOINT Neck1
					{
						OFFSET 0.000000 1.600000 0.340000
						CHANNELS 3 Zrotation Yrotation Xrotation
						JOINT Head
						{
							OFFSET 0.000000 1.667000 -0.240000
							CHANNELS 3 Zrotation Yrotation Xrotation
							End Site
							{
								OFFSET 0.000000 0.000000 0.000000
							}
						}
					}
				}
				JOINT LeftShoulder
				{
					OFFSET 0.000000 0.000000 0.000000
					CHANNELS 3 Zrotation Yrotation Xrotation
					JOINT LeftArm
					{
						OFFSET 2.700000 1.550000 -0.730000
						CHANNELS 3 Zrotation Yrotation Xrotation
						JOINT LeftForeArm
						{
							OFFSET 5.450000 0.000000 0.000000
							CHANNELS 3 Zrotation Yrotation Xrotation
							JOINT LeftHand
							{
								OFFSET 3.450000 0.000000 0.000000
								CHANNELS 3 Zrotation Yrotation Xrotation
								JOINT LeftHandIndex1
								{
									OFFSET 0.750000 0.000000 0.000000
									CHANNELS 3 Zrotation Yrotation Xrotation
									End Site
									{
										OFFSET 0.000000 0.000000 0.000000
									}
								}
							}
						}
					}
				}
				JOINT RightShoulder
				{
					OFFSET 0.000000 0.000000 0.000000
					CHANNELS 3 Zrotation Yrotation Xrotation
					JOINT RightArm
					{
						OFFSET -2.700000 1.550000 -0.730000
						CHANNELS 3 Zrotation Yrotation Xrotation
						JOINT RightForeArm
						{
							OFFSET -5.450000 0.000000 0.000000
							CHANNELS 3 Zrotation Yrotation Xrotation
							JOINT RightHand
							{
								OFFSET -3.450000 0.000000 0.000000
								CHANNELS 3 Zrotation Yrotation Xrotation
								JOINT RightHandIndex1
								{
									OFFSET -0.750000 0.000000 0.000000
									CHANNELS 3 Zrotation Yrotation Xrotation
									End Site
									{
										OFFSET 0.000000 0.000000 0.000000
									}
								}
							}
						}
					}
				}
			}
		}
	}
}
MOTION
Frames: 6
Frame Time: 0.016667
2.147960 16.696000 -5.149440 -0.749902 -2.389448 -12.137339 -14.928334 14.942498 2.240956 24.338593 1.517291 -12.199272 19.769111 2.952902 50.881025 0.964378 8.846864 1.307483 -0.023330 -0.179840 0.074080 18.027247 -13.000490 1.470388 -26.857675 0.112857 -8.774062 -14.800645 -3.605095 50.107268 -1.060288 -7.574921 1.531601 -0.273490 -0.076720 0.204480 -3.452552 -0.933726 -7.397318 6.223721 0.445310 4.612194 -2.258215 0.918865 -7.108285 2.640260 0.675890 -14.588285 -1.833150 -0.351463 76.202140 -2.424740 -0.632130 10.587700 -5.840379 6.736578 5.429719 -22.821719 31.147245 -6.392327 11.584570 -0.472057 0.181626 -3.844472 2.570074 0.484560 -0.147820 0.341630 0.016770 1.077007 -5.051547 7.802525 36.725833 -22.349966 -10.825164 -13.510264 9.840228 -0.039514 2.854486 -0.936677 0.024250 -0.018170 0.057280 -0.020310 
2.174450 16.586400 -5.088650 -1.034206 -1.818343 -12.809649 -14.989575 14.969148 1.893363 25.715234 2.234484 -7.933235 20.684310 2.213570 44.412279 0.820240 8.018098 1.609582 0.013620 -0.123210 0.110750 17.979986 -13.172258 1.329000 -27.174159 -0.521283 -4.470324 -15.263413 -3.095028 44.733915 -0.966477 -7.095767 1.705202 -0.226020 -0.081120 0.207830 -3.297725 -0.609015 -6.742930 4.584018 1.362006 0.332970 -0.191136 1.223386 -4.372825 2.838426 2.008410 -14.000606 1.825426 -2.766014 78.493266 -3.400370 -0.408350 12.334290 -4.161649 7.263772 5.125980 -18.503586 28.771112 -5.123504 14.575376 -1.238424 0.331720 -3.889064 2.623199 0.433540 -0.116360 0.336220 0.030670 -0.398510 -6.887789 7.657447 33.231143 -23.247232 -10.310229 -17.699452 11.830452 -0.417927 2.852135 -1.072654 0.034170 -0.033900 0.013820 -0.012970 
2.223870 16.463130 -5.045820 -1.339522 -0.501546 -12.871697 -15.096284 14.945014 1.714056 26.480279 2.292745 -5.506477 21.989833 1.329080 39.130394 0.675176 7.462735 1.830431 0.005910 -0.150440 0.130780 17.902183 -13.157303 1.258515 -27.388558 -1.114114 -0.729823 -15.201491 -3.117063 40.080101 -0.901552 -6.771833 1.830938 -0.214300 -0.053270 0.227530 -3.065770 -0.558670 -6.290189 3.356788 2.084014 -3.154057 1.763851 1.628036 -3.617000 3.444725 2.916432 -13.348710 3.676213 -4.193163 79.710422 -5.047080 0.071480 13.207190 -3.956859 7.609157 4.219631 -12.756798 24.812483 -3.273142 16.357099 -1.502646 0.337838 -3.969193 2.646117 0.416470 -0.069360 0.307680 0.019150 -1.140297 -8.145877 7.763882 28.823872 -25.543224 -9.504192 -24.309266 13.307224 -0.752585 2.843496 -1.211445 0.011630 -0.028980 0.030620 -0.031500 
2.276480 16.352850 -5.033390 -1.501783 -0.585210 -12.963747 -15.119742 14.894029 1.633691 27.157028 2.409990 -3.566961 22.406690 1.134638 36.210806 0.606935 7.218544 1.925637 0.020570 -0.146490 0.160630 17.899728 -13.143868 1.231957 -27.395196 -1.255698 0.846745 -16.146965 -2.619096 37.883520 -0.892088 -6.657773 1.865222 -0.195810 -0.055570 0.251210 -3.021635 -0.445660 -6.042234 3.201087 1.917776 -5.341790 1.800989 1.330703 -4.136179 3.963108 3.299998 -12.487578 5.327307 -5.134133 80.945842 -6.267010 0.915220 13.347360 -3.384652 9.057780 3.235863 -7.723348 23.156201 -1.972709 18.906477 -4.752739 0.195992 -4.013469 2.747764 0.403530 -0.045080 0.297670 0.004610 -2.554859 -9.913678 7.331762 25.011790 -24.235708 -8.623155 -29.691583 18.625312 -1.871800 2.806961 -1.357420 0.012050 -0.043940 0.038120 -0.049580 
2.315130 16.221650 -5.045750 -1.622286 -0.192350 -12.137283 -15.157590 14.865854 1.658134 27.232877 2.364108 -4.334488 22.726823 0.979796 35.728711 0.548628 7.151237 1.931188 0.024100 -0.136060 0.160450 17.855125 -13.191448 1.232536 -26.712205 -1.233392 0.688653 -17.206328 -2.046020 37.926387 -0.911525 -6.648861 1.871604 -0.180940 -0.063810 0.256090 -2.906791 -0.253461 -6.046894 2.392926 2.296136 -6.247485 2.150590 1.982837 -6.556272 4.301785 3.870511 -12.315929 7.205074 -7.437488 81.783654 -7.307290 -0.384630 12.268990 -2.214274 10.048516 1.992934 -4.514077 18.913106 -1.174848 23.010251 -8.060096 -0.018296 -4.073862 2.800905 0.420090 -0.047150 0.310940 -0.002990 -4.241315 -10.962807 7.612653 24.668751 -25.088938 -8.544109 -37.812528 21.489802 -3.080489 2.805697 -1.429131 0.007980 -0.019220 0.055030 -0.055080 
2.356510 16.120130 -5.098760 -1.137509 -1.643171 -11.743895 -15.079670 14.947254 1.673897 26.488609 2.696890 -4.454134 22.459266 1.197534 37.177008 0.600295 7.316518 1.889680 -0.010100 -0.167020 0.129620 17.902984 -13.250675 1.262489 -26.452346 -0.630880 -1.111241 -18.898474 -0.991374 38.875567 -0.902620 -6.694162 1.861752 -0.201280 -0.033160 0.265440 -3.047011 -0.208045 -6.166737 3.476681 2.206326 -5.847063 0.447270 2.040115 -8.377515 4.469584 3.670935 -11.973760 7.117797 -7.137469 81.415681 -8.279870 0.297570 13.135930 -2.517437 11.349491 1.258959 -1.911413 19.376673 -0.304419 28.578374 -11.066069 -0.174634 -4.167986 2.887435 0.393200 -0.018890 0.295020 0.002120 -4.682072 -11.823891 7.448136 24.505704 -24.602361 -8.542368 -44.799967 30.546468 -6.543734 2.741250 -1.487879 0.007580 -0.018020 0.069350 -0.040500 
